<svg xmlns="http://www.w3.org/2000/svg" xml:space="preserve" width="1000" height="267.264" viewBox="0 0 1000 267.264"><path fill="#1A1A1A" d="M509.608 156.496 470.344 47.608a4.632 4.632 0 0 0-4.352-3.056h-40.44a4.616 4.616 0 0 0-4.296 6.336L488.08 219.8a4.658 4.658 0 0 0 4.312 2.936h34.44a4.688 4.688 0 0 0 4.32-2.936l66.824-168.912a4.632 4.632 0 0 0-4.304-6.336h-40.44a4.624 4.624 0 0 0-4.352 3.056Zm124.344 66.224h37.056a4.64 4.64 0 0 0 4.632-4.632V49.184a4.64 4.64 0 0 0-4.632-4.632h-37.056a4.64 4.64 0 0 0-4.64 4.632v168.912a4.64 4.64 0 0 0 4.64 4.624M1000 79.12V49.176a4.64 4.64 0 0 0-4.624-4.632H887.04a4.64 4.64 0 0 0-4.64 4.632v168.92c0 2.56 2.088 4.632 4.64 4.632h108.336a4.623 4.623 0 0 0 4.624-4.632V188.16a4.624 4.624 0 0 0-4.624-4.632h-69.32v-31.656h63.968a4.64 4.64 0 0 0 4.648-4.64V119.08a4.64 4.64 0 0 0-4.648-4.632h-63.968V83.752h69.32A4.64 4.64 0 0 0 1000 79.12M822.76 130s23.312-13.696 23.312-39.744c0-26.032-18.376-45.712-48.528-45.712l-.168.016v-.016H722.96a4.64 4.64 0 0 0-4.64 4.632v168.912c0 2.56 2.08 4.632 4.64 4.632h74.408c30.048-.08 52.808-14.68 52.808-48.864C850.184 139.6 822.76 130 822.76 130m-60.776-49.824h22.464c6.128 0 18.576 3.216 18.576 18.304 0 15.072-9.064 19.112-15.568 19.112h-25.472zm25.808 106.904h-25.8v-37.408h24.144c7.872 0 19.648 2.264 19.648 18.704-.008 17.824-14.096 18.704-17.992 18.704M3.224 114.912H32.92a3.232 3.232 0 0 0 3.232-3.216v-77.48a3.224 3.224 0 0 0-3.232-3.224H3.224A3.224 3.224 0 0 0 0 34.216v77.48a3.228 3.228 0 0 0 3.224 3.216m49.064 49.064h29.696c1.792 0 3.24-1.44 3.24-3.224V3.232A3.232 3.232 0 0 0 81.984 0H52.288a3.232 3.232 0 0 0-3.232 3.232v157.52a3.232 3.232 0 0 0 3.232 3.224m49.072 50.36h29.696a3.224 3.224 0 0 0 3.224-3.224V53.592a3.232 3.232 0 0 0-3.224-3.24H101.36a3.232 3.232 0 0 0-3.232 3.24v157.52a3.232 3.232 0 0 0 3.232 3.224m98.128 0h29.696a3.224 3.224 0 0 0 3.216-3.224V53.592a3.232 3.232 0 0 0-3.216-3.24h-29.696a3.232 3.232 0 0 0-3.232 3.24v157.52a3.232 3.232 0 0 0 3.232 3.224m49.056-50.36h29.696a3.226 3.226 0 0 0 3.232-3.224V3.232A3.232 3.232 0 0 0 278.24 0h-29.696a3.216 3.216 0 0 0-3.216 3.232v157.52a3.213 3.213 0 0 0 3.216 3.224m49.064-49.064h29.696a3.224 3.224 0 0 0 3.232-3.216v-77.48a3.224 3.224 0 0 0-3.232-3.224h-29.696a3.224 3.224 0 0 0-3.224 3.224v77.48a3.216 3.216 0 0 0 3.224 3.216M150.416 267.264h29.696c1.784 0 3.24-1.44 3.24-3.216v-157.52a3.24 3.24 0 0 0-3.24-3.24h-29.696a3.232 3.232 0 0 0-3.232 3.24v157.52a3.232 3.232 0 0 0 3.232 3.216"/></svg>